<mxfile host="app.diagrams.net" modified="2021-09-04T20:47:40.282Z" agent="5.0 (Windows NT 10.0; Win64; x64) AppleWebKit/537.36 (KHTML, like Gecko) Chrome/93.0.4577.63 Safari/537.36" etag="0nAV0J4CWspdjfl-0JyT" version="15.0.6" type="github">
  <diagram id="ZW8KjPHBVng-sFdDeAdc" name="Page-1">
    <mxGraphModel dx="1034" dy="583" grid="1" gridSize="10" guides="1" tooltips="1" connect="1" arrows="1" fold="1" page="1" pageScale="1" pageWidth="827" pageHeight="1169" math="0" shadow="0">
      <root>
        <mxCell id="0" />
        <mxCell id="1" parent="0" />
        <mxCell id="DyQfCPNxXZtnRhmKLorT-6" value="&lt;b&gt;PRODUTO&lt;/b&gt;&lt;br&gt;ID&lt;br&gt;NOMEPRODUTO&lt;br&gt;CATEGORIA&lt;br&gt;PREÇO&lt;br&gt;QUANT_ESTOQUE&lt;br&gt;CRIADO_EM&lt;br&gt;&lt;br&gt;TABLE_NAME" style="rounded=1;whiteSpace=wrap;html=1;" parent="1" vertex="1">
          <mxGeometry x="413" y="40" width="183.5" height="320" as="geometry" />
        </mxCell>
        <mxCell id="DyQfCPNxXZtnRhmKLorT-7" value="&lt;b&gt;LOJA_FISICA&lt;/b&gt;&lt;br&gt;ID&lt;br&gt;NOME_LOJA&lt;br&gt;ENDEREÇO&lt;br&gt;&lt;br&gt;TABLE_NAME" style="rounded=1;whiteSpace=wrap;html=1;" parent="1" vertex="1">
          <mxGeometry x="660" y="40" width="170" height="320" as="geometry" />
        </mxCell>
        <mxCell id="DyQfCPNxXZtnRhmKLorT-8" value="&lt;b&gt;CLIENTE&lt;/b&gt;&lt;br&gt;ID&lt;br&gt;NOME&lt;br&gt;CPF&lt;br&gt;EMAIL&lt;br&gt;ENDEREÇO&lt;br&gt;TELEFONE&lt;br&gt;CARTÃO&lt;br&gt;&lt;br&gt;CRIADO-EM&lt;br&gt;&lt;br&gt;TABLE_NAME" style="rounded=1;whiteSpace=wrap;html=1;" parent="1" vertex="1">
          <mxGeometry x="40" y="40" width="160" height="320" as="geometry" />
        </mxCell>
        <mxCell id="DyQfCPNxXZtnRhmKLorT-25" value="&lt;b&gt;COMPRAS&lt;/b&gt;&lt;br&gt;ID COMPRA&lt;br&gt;ID CLIENTE&lt;br&gt;NOMEPRODUTO&lt;br&gt;CATEGORIA&lt;br&gt;PREÇO&lt;br&gt;QUANT_ESTOQUE&lt;br&gt;FORMA DE PAGAMENTO&lt;br&gt;CRIADO_EM&lt;br&gt;&lt;br&gt;TABLE_NAME" style="rounded=1;whiteSpace=wrap;html=1;fillColor=#ffe6cc;strokeColor=#d79b00;" parent="1" vertex="1">
          <mxGeometry x="190" y="425" width="183.5" height="320" as="geometry" />
        </mxCell>
        <mxCell id="DyQfCPNxXZtnRhmKLorT-26" value="&lt;b&gt;ITENS_COMPRAS&lt;/b&gt;&lt;br&gt;ID COMPRA&lt;br&gt;ID PRODUTO&lt;br&gt;QUANTIDADE&lt;br&gt;VALOR&lt;br&gt;DATA&lt;br&gt;&lt;br&gt;TABLE_NAME" style="rounded=1;whiteSpace=wrap;html=1;fillColor=#ffe6cc;strokeColor=#d79b00;" parent="1" vertex="1">
          <mxGeometry x="410" y="425" width="170" height="320" as="geometry" />
        </mxCell>
        <mxCell id="DyQfCPNxXZtnRhmKLorT-27" value="&lt;b&gt;ESTOQUE&lt;/b&gt;&lt;br&gt;ID COMPRA&lt;br&gt;ID PRODUTO&lt;br&gt;ID LOJA&lt;br&gt;QUANTIDADE&lt;br&gt;DATA&lt;br&gt;&lt;br&gt;TABLE_NAME" style="rounded=1;whiteSpace=wrap;html=1;fillColor=#ffe6cc;strokeColor=#d79b00;" parent="1" vertex="1">
          <mxGeometry x="610" y="425" width="170" height="320" as="geometry" />
        </mxCell>
        <mxCell id="DyQfCPNxXZtnRhmKLorT-30" value="" style="endArrow=none;html=1;entryX=0.006;entryY=0.581;entryDx=0;entryDy=0;entryPerimeter=0;" parent="1" target="DyQfCPNxXZtnRhmKLorT-7" edge="1">
          <mxGeometry width="50" height="50" relative="1" as="geometry">
            <mxPoint x="596.5" y="225" as="sourcePoint" />
            <mxPoint x="646.5" y="175" as="targetPoint" />
          </mxGeometry>
        </mxCell>
        <mxCell id="DyQfCPNxXZtnRhmKLorT-32" value="" style="endArrow=none;html=1;" parent="1" edge="1">
          <mxGeometry width="50" height="50" relative="1" as="geometry">
            <mxPoint x="200" y="210" as="sourcePoint" />
            <mxPoint x="410" y="210" as="targetPoint" />
          </mxGeometry>
        </mxCell>
        <mxCell id="DyQfCPNxXZtnRhmKLorT-33" value="" style="endArrow=none;html=1;exitX=0.599;exitY=0.006;exitDx=0;exitDy=0;exitPerimeter=0;" parent="1" edge="1">
          <mxGeometry width="50" height="50" relative="1" as="geometry">
            <mxPoint x="280.91650000000004" y="426.9200000000001" as="sourcePoint" />
            <mxPoint x="281" y="210" as="targetPoint" />
          </mxGeometry>
        </mxCell>
        <mxCell id="DyQfCPNxXZtnRhmKLorT-34" value="" style="endArrow=none;html=1;" parent="1" edge="1">
          <mxGeometry width="50" height="50" relative="1" as="geometry">
            <mxPoint x="373.5" y="580" as="sourcePoint" />
            <mxPoint x="410" y="580" as="targetPoint" />
          </mxGeometry>
        </mxCell>
        <mxCell id="DyQfCPNxXZtnRhmKLorT-35" value="" style="endArrow=none;html=1;" parent="1" edge="1">
          <mxGeometry width="50" height="50" relative="1" as="geometry">
            <mxPoint x="681" y="425" as="sourcePoint" />
            <mxPoint x="631" y="225" as="targetPoint" />
            <Array as="points">
              <mxPoint x="681" y="385" />
              <mxPoint x="631" y="385" />
            </Array>
          </mxGeometry>
        </mxCell>
        <mxCell id="DyQfCPNxXZtnRhmKLorT-37" value="SQL" style="shape=cylinder3;whiteSpace=wrap;html=1;boundedLbl=1;backgroundOutline=1;size=15;" parent="1" vertex="1">
          <mxGeometry x="70" y="860" width="80" height="110" as="geometry" />
        </mxCell>
        <mxCell id="DyQfCPNxXZtnRhmKLorT-38" value="List" style="swimlane;fontStyle=0;childLayout=stackLayout;horizontal=1;startSize=26;horizontalStack=0;resizeParent=1;resizeParentMax=0;resizeLast=0;collapsible=1;marginBottom=0;" parent="1" vertex="1">
          <mxGeometry x="280" y="790" width="200" height="206" as="geometry" />
        </mxCell>
        <mxCell id="DyQfCPNxXZtnRhmKLorT-42" value="" style="shape=process;whiteSpace=wrap;html=1;backgroundOutline=1;" parent="DyQfCPNxXZtnRhmKLorT-38" vertex="1">
          <mxGeometry y="26" width="200" height="60" as="geometry" />
        </mxCell>
        <mxCell id="DyQfCPNxXZtnRhmKLorT-52" value="" style="shape=process;whiteSpace=wrap;html=1;backgroundOutline=1;" parent="DyQfCPNxXZtnRhmKLorT-38" vertex="1">
          <mxGeometry y="86" width="200" height="60" as="geometry" />
        </mxCell>
        <mxCell id="DyQfCPNxXZtnRhmKLorT-48" value="" style="shape=process;whiteSpace=wrap;html=1;backgroundOutline=1;" parent="DyQfCPNxXZtnRhmKLorT-38" vertex="1">
          <mxGeometry y="146" width="200" height="60" as="geometry" />
        </mxCell>
        <mxCell id="DyQfCPNxXZtnRhmKLorT-51" value="" style="endArrow=classic;html=1;" parent="1" edge="1">
          <mxGeometry width="50" height="50" relative="1" as="geometry">
            <mxPoint x="280" y="930" as="sourcePoint" />
            <mxPoint x="160" y="930" as="targetPoint" />
          </mxGeometry>
        </mxCell>
        <mxCell id="DyQfCPNxXZtnRhmKLorT-54" value="&lt;b&gt;PRODUTO&lt;/b&gt;&lt;br&gt;ID&lt;br&gt;NOMEPRODUTO&lt;br&gt;CATEGORIA&lt;br&gt;PREÇO&lt;br&gt;QUANT_ESTOQUE&lt;br&gt;CRIADO_EM&lt;br&gt;&lt;br&gt;TABLE_NAME" style="rounded=1;whiteSpace=wrap;html=1;" parent="1" vertex="1">
          <mxGeometry x="1350" y="40" width="183.5" height="320" as="geometry" />
        </mxCell>
        <mxCell id="DyQfCPNxXZtnRhmKLorT-55" value="&lt;b&gt;LOJA_FISICA&lt;/b&gt;&lt;br&gt;ID&lt;br&gt;NOME_LOJA&lt;br&gt;ENDEREÇO&lt;br&gt;&lt;br&gt;TABLE_NAME" style="rounded=1;whiteSpace=wrap;html=1;" parent="1" vertex="1">
          <mxGeometry x="1560" y="40" width="170" height="320" as="geometry" />
        </mxCell>
        <mxCell id="DyQfCPNxXZtnRhmKLorT-56" value="&lt;b&gt;CLIENTE&lt;/b&gt;&lt;br&gt;ID&lt;br&gt;NOME&lt;br&gt;CPF&lt;br&gt;EMAIL&lt;br&gt;ENDEREÇO&lt;br&gt;TELEFONE&lt;br&gt;CARTÃO&lt;br&gt;&lt;br&gt;CRIADO-EM&lt;br&gt;&lt;br&gt;TABLE_NAME" style="rounded=1;whiteSpace=wrap;html=1;" parent="1" vertex="1">
          <mxGeometry x="940" y="40" width="160" height="320" as="geometry" />
        </mxCell>
        <mxCell id="DyQfCPNxXZtnRhmKLorT-57" value="&lt;b&gt;COMPRAS&lt;/b&gt;&lt;br&gt;ID COMPRA&lt;br&gt;ID CLIENTE&lt;br&gt;NOMEPRODUTO&lt;br&gt;CATEGORIA&lt;br&gt;PREÇO&lt;br&gt;QUANT_ESTOQUE&lt;br&gt;FORMA DE PAGAMENTO&lt;br&gt;CRIADO_EM&lt;br&gt;&lt;br&gt;TABLE_NAME" style="rounded=1;whiteSpace=wrap;html=1;" parent="1" vertex="1">
          <mxGeometry x="1140" y="40" width="170" height="320" as="geometry" />
        </mxCell>
        <mxCell id="DyQfCPNxXZtnRhmKLorT-58" value="&lt;b&gt;ITENS_COMPRAS&lt;/b&gt;&lt;br&gt;ID COMPRA&lt;br&gt;ID PRODUTO&lt;br&gt;QUANTIDADE&lt;br&gt;VALOR&lt;br&gt;DATA&lt;br&gt;&lt;br&gt;TABLE_NAME" style="rounded=1;whiteSpace=wrap;html=1;fillColor=#ffe6cc;strokeColor=#d79b00;" parent="1" vertex="1">
          <mxGeometry x="1140" y="290" width="170" height="125" as="geometry" />
        </mxCell>
        <mxCell id="DyQfCPNxXZtnRhmKLorT-59" value="&lt;b&gt;ESTOQUE&lt;/b&gt;&lt;br&gt;&lt;br&gt;ID PRODUTO&lt;br&gt;ID LOJA&lt;br&gt;QUANTIDADE&lt;br&gt;DATA&lt;br&gt;&lt;br&gt;TABLE_NAME" style="rounded=1;whiteSpace=wrap;html=1;fillColor=#ffe6cc;strokeColor=#d79b00;" parent="1" vertex="1">
          <mxGeometry x="1484" y="470" width="170" height="320" as="geometry" />
        </mxCell>
        <mxCell id="DyQfCPNxXZtnRhmKLorT-70" value="&lt;font style=&quot;font-size: 24px&quot;&gt;Listar Loja&lt;/font&gt;" style="text;html=1;strokeColor=none;fillColor=none;align=center;verticalAlign=middle;whiteSpace=wrap;rounded=0;" parent="1" vertex="1">
          <mxGeometry x="1590" y="380" width="170" height="20" as="geometry" />
        </mxCell>
        <mxCell id="DyQfCPNxXZtnRhmKLorT-71" style="edgeStyle=orthogonalEdgeStyle;rounded=0;orthogonalLoop=1;jettySize=auto;html=1;exitX=0.5;exitY=1;exitDx=0;exitDy=0;" parent="1" source="DyQfCPNxXZtnRhmKLorT-70" target="DyQfCPNxXZtnRhmKLorT-70" edge="1">
          <mxGeometry relative="1" as="geometry" />
        </mxCell>
        <mxCell id="DyQfCPNxXZtnRhmKLorT-72" value="&lt;font style=&quot;font-size: 24px&quot;&gt;Listar todos produtos&lt;/font&gt;" style="text;html=1;strokeColor=none;fillColor=none;align=center;verticalAlign=middle;whiteSpace=wrap;rounded=0;" parent="1" vertex="1">
          <mxGeometry x="1350" y="380" width="230" height="20" as="geometry" />
        </mxCell>
        <mxCell id="DyQfCPNxXZtnRhmKLorT-85" value="&lt;font style=&quot;font-size: 18px&quot;&gt;CADASTRAR CLIENTE&lt;/font&gt;" style="text;html=1;align=center;verticalAlign=middle;resizable=0;points=[];autosize=1;strokeColor=none;fillColor=none;" parent="1" vertex="1">
          <mxGeometry x="900" y="380" width="210" height="20" as="geometry" />
        </mxCell>
        <mxCell id="DyQfCPNxXZtnRhmKLorT-86" value="&lt;font style=&quot;font-size: 14px&quot;&gt;FINALIZAR COMPRA&lt;/font&gt;" style="text;html=1;align=center;verticalAlign=middle;resizable=0;points=[];autosize=1;strokeColor=none;fillColor=none;" parent="1" vertex="1">
          <mxGeometry x="1100" y="460" width="150" height="20" as="geometry" />
        </mxCell>
        <mxCell id="DyQfCPNxXZtnRhmKLorT-90" value="&lt;font style=&quot;font-size: 14px&quot;&gt;REMOVER UM PRODUTO DA LISTA&amp;nbsp;&lt;/font&gt;" style="text;html=1;align=center;verticalAlign=middle;resizable=0;points=[];autosize=1;strokeColor=none;fillColor=none;" parent="1" vertex="1">
          <mxGeometry x="1100" y="440" width="250" height="20" as="geometry" />
        </mxCell>
        <mxCell id="DyQfCPNxXZtnRhmKLorT-94" value="&lt;font style=&quot;font-size: 14px&quot;&gt;ADD PRODUTO NA LISTA&lt;/font&gt;" style="text;html=1;strokeColor=none;fillColor=none;align=center;verticalAlign=middle;whiteSpace=wrap;rounded=0;" parent="1" vertex="1">
          <mxGeometry x="1090" y="480" width="220" height="20" as="geometry" />
        </mxCell>
        <mxCell id="DyQfCPNxXZtnRhmKLorT-95" value="&lt;font style=&quot;font-size: 18px&quot;&gt;Cliente&lt;br/&gt;&lt;br/&gt;POST  /cliente &lt;br/&gt;GET /cliente/{id}/compras&lt;/font&gt;" style="text;whiteSpace=wrap;html=1;" parent="1" vertex="1">
          <mxGeometry x="860" y="400" width="280" height="30" as="geometry" />
        </mxCell>
        <mxCell id="DyQfCPNxXZtnRhmKLorT-98" value="&lt;font style=&quot;font-size: 18px&quot;&gt;POST /compras/adicionar-produto&lt;br/&gt;POST /finalizar-compra&lt;/font&gt;" style="text;whiteSpace=wrap;html=1;" parent="1" vertex="1">
          <mxGeometry x="1100" y="510" width="340" height="30" as="geometry" />
        </mxCell>
        <mxCell id="DyQfCPNxXZtnRhmKLorT-99" value="&lt;font style=&quot;font-size: 18px&quot;&gt;POST /remover-produto&lt;/font&gt;" style="text;whiteSpace=wrap;html=1;" parent="1" vertex="1">
          <mxGeometry x="1100" y="555" width="210" height="30" as="geometry" />
        </mxCell>
        <mxCell id="DyQfCPNxXZtnRhmKLorT-100" value="&lt;font style=&quot;font-size: 18px&quot;&gt;GET /produtos&lt;/font&gt;" style="text;whiteSpace=wrap;html=1;" parent="1" vertex="1">
          <mxGeometry x="1400" y="415" width="140" height="30" as="geometry" />
        </mxCell>
        <mxCell id="DyQfCPNxXZtnRhmKLorT-101" value="&lt;font style=&quot;font-size: 18px&quot;&gt;GET /lojas&lt;/font&gt;" style="text;whiteSpace=wrap;html=1;" parent="1" vertex="1">
          <mxGeometry x="1620" y="410" width="110" height="30" as="geometry" />
        </mxCell>
        <mxCell id="DyQfCPNxXZtnRhmKLorT-102" value="EXTRA" style="text;html=1;strokeColor=none;fillColor=none;align=center;verticalAlign=middle;whiteSpace=wrap;rounded=0;" parent="1" vertex="1">
          <mxGeometry x="1549" y="510" width="40" height="20" as="geometry" />
        </mxCell>
      </root>
    </mxGraphModel>
  </diagram>
</mxfile>
